<svg viewBox="0 0 20 20" xmlns="http://www.w3.org/2000/svg" style="fill:currentColor">
    <path d="M19.5 8.44l-9-8a.75.75 0 0 0-1 0l-9 8A.75.75 0 0 0 1 9.75h1.97v7H1.5a.75.75 0 0 0 0 1.5h17a.75.75 0 0 0 0-1.5h-1.47v-7H19a.75.75 0 0 0 .5-1.31zM4.47 16.75V9a.75.75 0 0 0-.75-.75h-.75L10 2l7.03 6.25h-.75a.75.75 0 0 0-.75.75v7.75zm8.32-9.2c-.87-.35-1.9-.17-2.79.47-.9-.64-1.92-.82-2.79-.46-.91.38-1.46 1.3-1.46 2.44 0 1.6 1.25 3.28 3.81 5.11a.75.75 0 0 0 .88 0c2.56-1.83 3.81-3.5 3.81-5.11 0-1.15-.55-2.06-1.46-2.44zM10 13.58c-2.26-1.7-2.75-2.88-2.75-3.57 0-.31.07-.86.54-1.06a.94.94 0 0 1 .36-.06c.41 0 .9.23 1.32.65.3.3.77.3 1.06 0 .55-.55 1.21-.78 1.68-.59.47.2.54.75.54 1.06 0 .7-.5 1.86-2.75 3.57z"></path>
</svg>