<svg viewBox="0 0 20 20" xmlns="http://www.w3.org/2000/svg" style="fill:currentColor">
    <path d="M11.3 19.9H9.1c-.87 0-1.62-.66-1.73-1.53l-.17-1.34a.25.25 0 0 0-.12-.19l-1.13-.64a.25.25 0 0 0-.21-.02l-1.37.52c-.8.3-1.7-.01-2.13-.76L1.1 13.99a1.74 1.74 0 0 1 .4-2.23l1.13-.92c.06-.05.1-.12.1-.2V9.32a.25.25 0 0 0-.1-.2l-1.06-.79c-.7-.53-.9-1.5-.46-2.27l1.1-1.9a1.75 1.75 0 0 1 2.19-.74l1.24.51c.08.03.16.03.23-.01l1.2-.7c.06-.03.1-.1.12-.18l.17-1.33C7.48.84 8.23.18 9.11.18h2.22c.87 0 1.6.62 1.73 1.47l.23 1.44c.01.08.06.14.13.18l1.12.65c.07.04.15.04.22.01L16 3.42a1.75 1.75 0 0 1 2.19.74l1.1 1.9c.44.76.24 1.74-.47 2.27l-1.05.8a.25.25 0 0 0-.1.2v1.31c0 .08.03.15.1.2l1.12.92c.67.54.85 1.48.41 2.23l-1.1 1.92a1.75 1.75 0 0 1-2.2.74l-1.22-.52a.25.25 0 0 0-.23.01l-1.21.7a.25.25 0 0 0-.13.19l-.17 1.34a1.76 1.76 0 0 1-1.73 1.52zm-5.47-5.24c.3 0 .6.08.87.24l1.13.64c.46.28.79.76.86 1.3l.17 1.33c.01.13.12.22.25.22h2.2c.12 0 .23-.1.24-.22l.18-1.33c.07-.54.39-1.02.86-1.3l1.21-.7a1.76 1.76 0 0 1 1.56-.1l1.22.53c.12.05.25 0 .31-.1L18 13.23a.25.25 0 0 0-.05-.32L16.8 12a1.75 1.75 0 0 1-.64-1.36V9.32c0-.54.26-1.06.7-1.4l1.05-.79c.1-.07.13-.21.07-.32l-1.1-1.9a.25.25 0 0 0-.31-.1l-1.25.5c-.5.22-1.07.18-1.54-.1l-1.12-.64a1.74 1.74 0 0 1-.86-1.24l-.23-1.44a.25.25 0 0 0-.25-.2H9.11c-.13 0-.24.09-.25.21l-.18 1.33c-.06.54-.39 1.02-.86 1.3l-1.2.69c-.47.27-1.04.3-1.54.1L3.83 4.8a.25.25 0 0 0-.3.1l-1.1 1.91c-.07.1-.04.25.06.32l1.05.8c.43.33.7.85.7 1.4v1.31c0 .53-.24 1.02-.65 1.36l-1.13.92a.25.25 0 0 0-.05.32l1.12 1.95c.07.1.2.15.3.1l1.38-.51c.2-.08.4-.12.62-.12zm4.92-.33a.75.75 0 1 0-.18-1.49l-.36.03A2.82 2.82 0 0 1 7.9 8.44a.75.75 0 0 0-1.23-.86 4.32 4.32 0 0 0 4.08 6.75zm3.09-1.95a4.32 4.32 0 0 0-4-6.63.75.75 0 0 0 .13 1.5l.24-.01a2.82 2.82 0 0 1 2.37 4.33.75.75 0 0 0 1.26.81z"></path>
</svg>